# Blender v2.92.0 OBJ File: 'container.blend'
# www.blender.org
mtllib container.mtl
o Cube
v 1.000000 1.000000 -1.000000
v 1.000000 -1.000000 -1.000000
v 1.000000 1.000000 1.000000
v 1.000000 -1.000000 1.000000
v -1.000000 1.000000 -1.000000
v -1.000000 -1.000000 -1.000000
v -1.000000 1.000000 1.000000
v -1.000000 -1.000000 1.000000
vt 0.002668 0.002366
vt -0.998127 -0.001751
vt -0.994010 -1.002546
vt 0.006784 -0.998429
vt 1.007579 -0.994313
vt 0.010901 -1.999224
vt 1.011696 -1.995108
vt 0.995230 2.008071
vt -0.005565 2.003955
vt -0.001449 1.003160
vt 0.999346 1.007277
vt 2.004258 0.010598
vt 1.003463 0.006482
vt 2.008374 -0.990196
vn 0.0000 1.0000 0.0000
vn 0.0000 0.0000 1.0000
vn -1.0000 0.0000 0.0000
vn 0.0000 -1.0000 0.0000
vn 1.0000 0.0000 0.0000
vn 0.0000 0.0000 -1.0000
usemtl Material
s off
f 1/1/1 5/2/1 7/3/1 3/4/1
f 4/5/2 3/4/2 7/6/2 8/7/2
f 8/8/3 7/9/3 5/10/3 6/11/3
f 6/12/4 2/13/4 4/5/4 8/14/4
f 2/13/5 1/1/5 3/4/5 4/5/5
f 6/11/6 5/10/6 1/1/6 2/13/6
